<svg xmlns="http://www.w3.org/2000/svg" version="1.1" xmlns:xlink="http://www.w3.org/1999/xlink" width="512" height="512" x="0" y="0" viewBox="0 0 448 448" style="enable-background:new 0 0 512 512" xml:space="preserve" class=""><g><path d="M336 0H104v40H24v104h80v304h320V80L344 0z" style="" fill="#ffdc69" data-original="#ffdc69" class=""></path><path d="M24 40h272v104H24z" style="" fill="#ff8c5a" data-original="#ff8c5a"></path><path d="M216 288h96v160h-96z" style="" fill="#feec9f" data-original="#feec9f" class=""></path><path d="M256 256h-24v-24l40-40 24 24z" style="" fill="#ffffff" data-original="#ffffff"></path><path d="M344 0h-8v88h88v-8z" style="" fill="#ffb855" data-original="#ffb855"></path><path d="M240 312h24v16h-24zM240 344h48v16h-48zM240 376h48v16h-48zM240 408h48v16h-48zM48 104h16v16H48zM94.2 64.168H77.376v55.808H95.04c17.672 0 27.816-10.264 27.816-28.16-.008-18.088-9.912-27.648-28.656-27.648zm12.312 27.648c0 13.272-7.016 14.976-13.144 14.976V77.344c6.832 0 13.144 1.76 13.144 14.472zM128.464 91.816c0 17.712 10.2 29.16 25.984 29.16s25.984-11.448 25.984-29.16c0-17.672-9.952-28.648-25.984-28.648s-25.984 10.976-25.984 28.648zm25.976 15.136c-5.952 0-9.648-5.8-9.648-15.144 0-9.168 3.608-14.64 9.648-14.64s9.656 5.472 9.656 14.64c0 9.352-3.704 15.144-9.656 15.144zM231.136 112.672l.488-.56-8.936-9.88-.624.672c-2.552 2.728-5.456 4.056-8.872 4.056-6.776 0-10.816-5.592-10.816-14.968 0-8.728 4.584-14.816 11.152-14.816 3.328 0 5.504 1.32 7.936 3.456l.632.544L231 71.144l-.56-.56c-4.712-4.712-10.936-7.416-17.08-7.416-13.576 0-27.312 10.072-27.312 29.32 0 17.304 10.592 28.488 26.984 28.488 7.072-.008 13.504-2.952 18.104-8.304z" style="" fill="#ffffff" data-original="#ffffff"></path><path d="M336 328h40v16h-40zM352 360h16v16h-16zM384 360h16v16h-16zM336 392h56v16h-56zM152 360h40v16h-40zM160 328h16v16h-16zM128 328h16v16h-16zM136 296h56v16h-56zM320 216h56v16h-56zM152 216h56v16h-56zM344 248h16v16h-16zM376 248h24v16h-24zM128 248h16v16h-16zM160 248h24v16h-24z" style="" fill="#feec9f" data-original="#feec9f" class=""></path></g></svg>