<svg xmlns="http://www.w3.org/2000/svg" version="1.1" xmlns:xlink="http://www.w3.org/1999/xlink" width="512" height="512" x="0" y="0" viewBox="0 0 68 68" style="enable-background:new 0 0 512 512" xml:space="preserve" class=""><g><path fill="#f7b92f" d="m16.262 65.792-2.445-1.423c-.557-.321-.902-1.01-.904-1.987l-.081-28.33 2.446 1.421 5.521 21.043c.002.977-5.094 8.952-4.537 9.276z" opacity="1" data-original="#f7b92f"></path><g fill="#423751"><path d="M55.09 5.615c-.01-1-.38-1.71-.96-2.01-.04-.02-.08-.04-.13-.06.02 0 .04.01.06.02l-2.32-1.36c-.56-.32-1.34-.28-2.2.22l-33.639 19.42c-1.71.99-3.09 3.38-3.09 5.35l.02 6.86 2.45 1.42 12.78-7.38c.45-.26.86-.77 1.1-1.35l.89-2.17.89-2.18c.24-.58.66-1.09 1.11-1.35l12.82-7.4c.35-.21.69-.24.93-.09.07.04.13.09.18.16l1.8 2.28c.24.31.66.33 1.11.07l6.22-3.59zm-3.11-1.77c.56-.32 1.08-.46 1.54-.41-.45-.04-.98.09-1.54.41z" fill="#423751" opacity="1" data-original="#423751"></path><path d="M53.52 3.435c-.45-.04-.98.09-1.54.41.56-.32 1.08-.46 1.54-.41zM54.13 3.605c-.04-.02-.08-.04-.13-.06.02 0 .04.01.06.02z" fill="#423751" opacity="1" data-original="#423751"></path><path d="M51.98 3.847c1.712-.988 3.103-.195 3.109 1.77l.02 6.86-6.217 3.59c-.452.26-.872.234-1.11-.069l-1.8-2.287a.643.643 0 0 0-.181-.16c-.243-.142-.576-.113-.929.09l-12.825 7.405c-.45.26-.869.77-1.105 1.348l-.89 2.177-.89 2.177c-.236.577-.655 1.088-1.105 1.348l-12.78 7.378-.02-6.86c-.005-1.966 1.378-4.36 3.088-5.347z" fill="#423751" opacity="1" data-original="#423751"></path></g><path fill="#ffd86a" d="M44.872 13.642c.353-.204.686-.233.929-.09.068.039.128.092.18.159l1.8 2.287c.24.303.66.33 1.11.07l6.217-3.59.08 28.33c.006 1.965-1.377 4.36-3.088 5.348l-33.635 19.42c-1.71.987-3.102.193-3.107-1.772l-.08-28.33 12.778-7.378c.451-.26.87-.771 1.106-1.348l.89-2.177.891-2.178c.235-.576.654-1.087 1.106-1.348z" opacity="1" data-original="#ffd86a"></path><path fill="#fccb4f" d="M55.188 40.808c.006 1.965-1.378 4.36-3.087 5.347l-33.636 19.42c-1.71.988-3.103.194-3.106-1.772l-.064-22.126a18.182 18.182 0 0 0 10.033 2.987c9.863 0 17.86-7.746 17.86-17.3 0-3.992-1.394-7.665-3.738-10.592l5.422-3.13c.352-.205.686-.233.929-.09.067.04.129.092.18.16l1.8 2.287c.24.302.66.327 1.109.07l6.219-3.591z" opacity="1" data-original="#fccb4f" class=""></path><path fill="#312944" d="M54.186 3.632c-.563-.328-1.343-.281-2.205.216L18.346 23.266c-1.712.989-3.093 3.382-3.088 5.348l.02 6.859-2.446-1.42-.02-6.86c-.005-1.965 1.377-4.36 3.088-5.347L49.535 2.427c.862-.497 1.642-.543 2.205-.217z" opacity="1" data-original="#312944"></path><path fill="#28223d" d="M18.173 27.672c.533-.308.968-.061.97.553s-.43 1.361-.964 1.67c-.535.308-.97.061-.971-.553s.43-1.361.965-1.67zM21.437 25.77c.533-.308.968-.061.97.553s-.43 1.361-.964 1.67c-.534.308-.97.061-.971-.553-.002-.614.43-1.361.965-1.67zM24.701 23.868c.533-.308.968-.061.97.553s-.43 1.361-.964 1.67c-.534.308-.97.061-.97-.553s.43-1.361.964-1.67z" opacity="1" data-original="#28223d"></path><path fill="#ffffff" d="M18.534 27.715c.534-.308.968-.062.97.552s-.43 1.362-.964 1.67c-.534.308-.969.062-.97-.553s.43-1.36.964-1.67zM21.798 25.813c.534-.308.969-.062.97.552s-.43 1.362-.963 1.67c-.535.308-.97.062-.972-.553s.43-1.36.965-1.67zM25.062 23.91c.534-.308.969-.061.97.553.002.614-.43 1.361-.963 1.67-.535.308-.97.062-.971-.553s.43-1.36.964-1.67z" opacity="1" data-original="#ffffff"></path><path fill="#f2aa19" d="M20.723 40.818c.184-.106.342-.124.474-.049.133.076.197.22.197.432l.013 4.366c.368-.683.763-1.285 1.191-1.812.426-.525.93-.954 1.512-1.29.535-.31.998-.432 1.392-.37.395.063.695.285.906.668.21.381.317.873.318 1.474l.014 4.75c0 .214-.065.428-.197.65a1.33 1.33 0 0 1-.47.49c-.187.107-.342.124-.468.052-.127-.073-.19-.213-.19-.427l-.013-4.583c-.004-1.36-.54-1.733-1.608-1.116-.486.28-.919.677-1.302 1.188a11.48 11.48 0 0 0-1.081 1.796l.014 5.019c0 .214-.062.426-.194.649-.132.22-.29.384-.473.49-.184.106-.34.123-.465.051-.128-.072-.192-.212-.192-.426l-.031-10.854c0-.212.062-.43.189-.655.125-.224.28-.387.464-.493zM30.25 37.412c.076-.044.142-.05.196-.013.055.033.081.097.081.186l.004 1.338 1.645-.95c.165-.095.3-.11.408-.05.107.063.161.186.162.375 0 .179-.053.365-.159.553a1.11 1.11 0 0 1-.407.428l-1.645.95.014 5.05c.001.437.092.661.271.674.18.013.406-.058.677-.214.196-.113.389-.257.582-.437.04-.034.08-.068.125-.104.044-.04.099-.076.167-.116.137-.079.257-.089.363-.033.11.056.161.167.162.335 0 .255-.11.514-.333.778-.377.418-.78.751-1.206.998-1.419.819-2.128.49-2.132-.98l-.015-5.187-1.035.598c-.077.045-.141.052-.195.02-.055-.028-.081-.088-.081-.178 0-.11.044-.232.131-.36l1.974-3.37c.086-.15.169-.247.247-.291zM43.034 31.54c.544-.315.997-.422 1.363-.319.364.102.637.347.812.736.176.39.265.854.266 1.387l.014 4.818c0 .214-.065.428-.196.65a1.33 1.33 0 0 1-.471.49c-.184.106-.34.122-.468.052-.125-.074-.189-.213-.19-.427l-.012-4.515c-.002-.725-.117-1.194-.34-1.404-.224-.212-.61-.161-1.151.152a3.687 3.687 0 0 0-1.23 1.154 8.959 8.959 0 0 0-.863 1.663l.014 5.018c0 .214-.063.427-.194.65-.132.22-.29.384-.473.49-.184.106-.34.123-.465.051-.128-.073-.192-.212-.193-.426l-.012-4.515c-.003-.725-.115-1.195-.34-1.404-.222-.214-.607-.162-1.151.152a3.687 3.687 0 0 0-1.23 1.154 8.944 8.944 0 0 0-.861 1.662l.014 5.018c0 .214-.065.428-.194.65-.131.219-.29.383-.473.49-.184.106-.34.122-.467.052-.126-.074-.19-.213-.19-.427l-.02-7.174c-.001-.214.062-.432.186-.654.127-.225.282-.39.466-.496.184-.107.342-.122.475-.046.13.074.196.217.197.43l.002.686c.27-.603.596-1.16.98-1.672.38-.51.88-.943 1.49-1.295.542-.313 1.01-.417 1.4-.306.387.11.666.358.832.743.598-1.496 1.49-2.586 2.673-3.269zM48.338 24.874c.194-.111.354-.133.482-.06.125.073.19.218.19.443l.03 10.855c.001.214-.064.428-.193.649-.132.22-.29.384-.473.49-.184.106-.34.123-.468.053-.125-.074-.19-.214-.19-.428l-.03-10.854c-.001-.212.062-.43.186-.654a1.27 1.27 0 0 1 .466-.494z" opacity="1" data-original="#f2aa19"></path><path fill="#ff3d47" d="M21.4 41.027c.184-.107.342-.125.475-.05.132.076.196.221.197.432l.012 4.366c.37-.682.764-1.285 1.192-1.811.426-.525.93-.955 1.512-1.29.535-.31.997-.433 1.392-.37.394.062.695.285.906.667.209.382.316.873.318 1.474l.014 4.75c0 .214-.065.429-.197.65a1.33 1.33 0 0 1-.47.49c-.187.107-.343.124-.468.053-.128-.073-.19-.214-.19-.428l-.013-4.582c-.004-1.36-.54-1.733-1.609-1.117-.485.28-.918.677-1.302 1.189a11.48 11.48 0 0 0-1.08 1.796l.014 5.018c0 .214-.063.427-.194.65-.132.219-.29.383-.473.49-.184.105-.34.122-.465.05-.128-.072-.192-.211-.193-.425l-.03-10.855c-.001-.211.062-.43.189-.655.124-.223.28-.386.463-.492zM30.928 37.62c.076-.044.142-.05.196-.013.055.034.08.097.08.187l.005 1.338 1.645-.95c.165-.095.3-.11.408-.051.107.063.161.186.162.376 0 .178-.054.364-.16.553a1.11 1.11 0 0 1-.406.427l-1.646.95.015 5.05c.001.437.091.661.27.675.18.013.407-.058.678-.215.195-.113.388-.257.582-.436l.124-.105c.045-.04.1-.076.168-.115.136-.08.257-.09.363-.034.109.057.161.167.162.335 0 .255-.11.514-.333.779-.377.418-.78.75-1.206.997-1.42.82-2.128.49-2.132-.98l-.015-5.186-1.035.597c-.078.045-.141.052-.196.021-.054-.028-.08-.09-.08-.179 0-.11.044-.231.13-.36l1.974-3.37c.087-.15.17-.246.247-.291zM43.712 31.748c.544-.315.997-.422 1.363-.318.364.102.636.346.812.735.176.39.265.854.266 1.388l.014 4.818c0 .214-.065.428-.197.65a1.33 1.33 0 0 1-.47.489c-.184.106-.34.123-.468.053-.125-.074-.19-.214-.19-.428l-.013-4.514c-.002-.726-.116-1.194-.339-1.405-.225-.212-.61-.16-1.152.152a3.687 3.687 0 0 0-1.229 1.155 8.959 8.959 0 0 0-.864 1.662l.015 5.019c0 .214-.063.426-.194.649-.132.22-.29.384-.474.49-.183.106-.34.123-.465.051-.127-.072-.191-.212-.192-.426l-.013-4.514c-.002-.726-.114-1.196-.339-1.405-.223-.213-.607-.162-1.152.152a3.687 3.687 0 0 0-1.229 1.155 8.944 8.944 0 0 0-.861 1.661l.014 5.018c0 .214-.065.429-.194.65-.132.22-.29.384-.473.49-.184.106-.34.123-.468.053-.125-.075-.19-.214-.19-.428l-.02-7.174c0-.214.062-.432.187-.653.127-.225.282-.391.466-.497.184-.106.342-.122.474-.046.13.074.197.217.198.431l.002.685c.27-.603.596-1.16.98-1.672.38-.51.88-.942 1.49-1.295.542-.313 1.01-.417 1.399-.306.387.11.667.359.833.743.598-1.495 1.49-2.585 2.673-3.268zM49.016 25.083c.193-.112.354-.134.482-.061.125.074.19.218.19.443l.03 10.855c.001.214-.064.428-.194.65-.131.219-.289.383-.473.49-.184.105-.34.122-.467.052-.125-.074-.19-.213-.19-.427l-.03-10.855c-.001-.211.062-.43.186-.653a1.27 1.27 0 0 1 .466-.494z" opacity="1" data-original="#ff3d47" class=""></path></g></svg>