<svg xmlns="http://www.w3.org/2000/svg" version="1.1" xmlns:xlink="http://www.w3.org/1999/xlink" width="512" height="512" x="0" y="0" viewBox="0 0 68 68" style="enable-background:new 0 0 512 512" xml:space="preserve" class=""><g><path fill="#edeef2" d="m52.998 39.822-.021 6.078c-.004 1.026-.281 1.832-.75 2.355-.152.17-.324.312-.515.421L22.407 65.71c-.396.23-.87.327-1.398.28-.52-.049-1.093-.24-1.686-.583-.897-.518-1.737-1.32-2.424-2.254a10.304 10.304 0 0 1-1.562-3.095c-.218-.724-.338-1.453-.335-2.134l.158-38.093c.001-.356.127-.605.329-.724l29.306-17.03c.205-.119.49-.103.805.08.625.36 1.127 1.235 1.126 1.95l-.152 36.298 4.494-2.611c.205-.12.49-.103.805.08.623.36 1.127 1.233 1.125 1.95z" opacity="1" data-original="#edeef2"></path><path fill="#edeef2" d="M50.11 45.923 20.804 62.955a1.005 1.005 0 0 1-.315.117c-.333.066-.727-.014-1.162-.263a3.603 3.603 0 0 1-.805-.653 4.984 4.984 0 0 1-.912-1.395c-.223-.511-.35-1.037-.348-1.536l.157-38.087c.004-.717-.5-1.59-1.125-1.952-.313-.182-.598-.198-.805-.08l29.306-17.03c.205-.119.49-.103.805.08.625.36 1.127 1.235 1.126 1.95l-.16 38.09c0 .498.128 1.024.349 1.535.223.511.541 1 .913 1.394.246.262.517.485.805.653.435.25.828.33 1.163.264.113-.023.219-.062.314-.119z" opacity="1" data-original="#edeef2"></path><path fill="#e0e1ec" d="M50.11 45.923 20.804 62.955a1.005 1.005 0 0 1-.315.117c-.333.066-.727-.014-1.162-.263a3.603 3.603 0 0 1-.805-.653 4.984 4.984 0 0 1-.912-1.395c-.223-.511-.35-1.037-.348-1.536l.09-22.023a12.31 12.31 0 0 0 6.126 1.633c7.192 0 13.024-6.232 13.024-13.918 0-5.997-3.55-11.108-8.525-13.067l16.818-9.774c.205-.119.49-.103.805.08.625.36 1.127 1.235 1.126 1.95l-.16 38.09c0 .498.128 1.024.349 1.535.223.511.541 1 .913 1.394.246.262.517.485.805.653.435.25.828.33 1.163.264.113-.023.219-.062.314-.119z" opacity="1" data-original="#e0e1ec"></path><path fill="#d3d3dd" d="m52.998 39.822-.021 6.078c-.004 1.026-.281 1.832-.75 2.355-.152.17-.324.312-.515.421L22.407 65.71a2.15 2.15 0 0 0 .513-.422c.47-.523.747-1.33.75-2.356l.022-6.077c.001-.716-.501-1.59-1.126-1.951-.315-.182-.6-.198-.805-.08l29.307-17.03c.205-.12.49-.103.805.08.623.36 1.127 1.233 1.125 1.95z" opacity="1" data-original="#d3d3dd"></path><path fill="#c9c9d3" d="M16.294 19.186c.625.362 1.128 1.235 1.125 1.95l-.158 38.089c-.001.5.126 1.026.349 1.537.223.51.541.999.911 1.393.247.264.517.486.806.654.435.25.829.329 1.162.264s.598-.28.756-.616c.106-.223.165-.5.167-.832l.02-6.078c.002-.717.51-1.005 1.135-.644.623.361 1.127 1.234 1.125 1.95l-.02 6.078c-.005 1.026-.282 1.832-.751 2.356-.47.524-1.131.772-1.91.701-.521-.048-1.094-.238-1.689-.581-.897-.52-1.736-1.32-2.424-2.254a10.353 10.353 0 0 1-1.562-3.096 7.391 7.391 0 0 1-.334-2.134l.158-38.093c.003-.716.51-1.004 1.134-.644z" opacity="1" data-original="#c9c9d3"></path><path fill="#b5b7c6" d="M21.542 46.4a.371.371 0 0 1-.186-.693l4.64-2.68a.371.371 0 1 1 .371.644l-4.64 2.679a.37.37 0 0 1-.185.05zM28.38 42.451a.371.371 0 0 1-.185-.693l15.28-8.822a.371.371 0 1 1 .372.643l-15.281 8.822a.37.37 0 0 1-.185.05zM38.483 41.08a.371.371 0 0 1-.186-.693l5.179-2.99a.371.371 0 1 1 .371.644l-5.179 2.99a.37.37 0 0 1-.185.05zM21.542 50.861a.371.371 0 0 1-.186-.693l14.728-8.503a.371.371 0 1 1 .371.643l-14.728 8.503a.37.37 0 0 1-.185.05z" opacity="1" data-original="#b5b7c6"></path><path fill="#423751" d="M21.938 46.4a.371.371 0 0 1-.186-.693l4.64-2.68a.371.371 0 1 1 .372.644l-4.64 2.679a.37.37 0 0 1-.186.05zM28.777 42.451a.371.371 0 0 1-.186-.693l15.281-8.822a.371.371 0 1 1 .371.643l-15.28 8.822a.37.37 0 0 1-.186.05zM38.88 41.08a.371.371 0 0 1-.187-.693l5.18-2.99a.371.371 0 1 1 .37.644l-5.178 2.99a.37.37 0 0 1-.186.05zM21.938 50.861a.371.371 0 0 1-.186-.693l14.728-8.503a.371.371 0 1 1 .371.643l-14.728 8.503a.37.37 0 0 1-.185.05z" opacity="1" data-original="#423751"></path><path fill="#b5b7c6" d="M21.542 37.26a.371.371 0 0 1-.186-.692l4.64-2.68a.371.371 0 1 1 .371.644l-4.64 2.679a.37.37 0 0 1-.185.05zM28.38 33.312a.371.371 0 0 1-.185-.693l15.28-8.822a.371.371 0 1 1 .372.643l-15.281 8.822a.37.37 0 0 1-.185.05zM38.483 31.941a.371.371 0 0 1-.186-.693l5.179-2.99a.371.371 0 1 1 .371.644l-5.179 2.99a.37.37 0 0 1-.185.05zM21.542 41.722a.371.371 0 0 1-.186-.693l14.728-8.503a.371.371 0 1 1 .371.643l-14.728 8.503a.37.37 0 0 1-.185.05z" opacity="1" data-original="#b5b7c6"></path><path fill="#423751" d="M21.938 37.26a.371.371 0 0 1-.186-.692l4.64-2.68a.371.371 0 1 1 .372.644l-4.64 2.679a.37.37 0 0 1-.186.05zM28.777 33.312a.371.371 0 0 1-.186-.693l15.281-8.822a.371.371 0 1 1 .371.643l-15.28 8.822a.37.37 0 0 1-.186.05zM38.88 31.941a.371.371 0 0 1-.187-.693l5.18-2.99a.371.371 0 1 1 .37.644l-5.178 2.99a.37.37 0 0 1-.186.05zM21.938 41.722a.371.371 0 0 1-.186-.693l14.728-8.503a.371.371 0 1 1 .371.643l-14.728 8.503a.37.37 0 0 1-.185.05z" opacity="1" data-original="#423751"></path><path fill="#c9c9d3" d="M23.745 20.228c.158-.091.294-.104.405-.038.114.062.17.185.171.367l.018 6.132c.003 1.252-.239 2.282-.723 3.085-.486.802-1.1 1.418-1.84 1.845-.61.352-1.164.509-1.665.472-.184-.017-.276-.143-.276-.371 0-.154.043-.316.13-.485a.885.885 0 0 1 .343-.38.473.473 0 0 1 .225-.072c.383-.009.772-.128 1.162-.354.451-.26.815-.62 1.093-1.076.278-.458.416-1.1.414-1.922l-.018-6.218c0-.181.052-.367.161-.558a1.09 1.09 0 0 1 .4-.427zM33.108 16.534c.218.354.326.81.328 1.363a5.108 5.108 0 0 1-.32 1.738c-.215.603-.571 1.203-1.07 1.798-.499.596-1.146 1.123-1.937 1.58l-2.274 1.312.01 3.07c0 .184-.057.368-.168.558-.112.189-.248.33-.406.42-.157.092-.291.106-.4.046-.108-.064-.163-.183-.164-.367l-.025-8.786c0-.182.054-.369.16-.559.11-.193.243-.335.4-.426l2.849-1.645c.791-.456 1.439-.677 1.94-.658.5.018.859.204 1.077.556zm-1.323 3.713c.345-.574.516-1.138.514-1.693-.002-.554-.175-.92-.522-1.094-.347-.172-.944-.016-1.794.475l-2.162 1.248.01 3.906 2.163-1.249c.85-.49 1.446-1.021 1.791-1.593M38.9 11.406c.65-.375 1.219-.61 1.707-.71a4.07 4.07 0 0 1 1.408-.052c.066.001.123.036.174.102a.44.44 0 0 1 .076.273c0 .162-.048.328-.143.499-.094.169-.222.3-.38.391a.54.54 0 0 1-.263.08 3.531 3.531 0 0 0-1.177.074c-.39.093-.815.271-1.273.535a6.476 6.476 0 0 0-1.712 1.45 6.917 6.917 0 0 0-1.19 2.03 6.536 6.536 0 0 0-.424 2.352c.002.746.14 1.335.412 1.77.273.43.664.67 1.18.713.512.044 1.12-.137 1.817-.54.783-.452 1.513-1.085 2.185-1.895l-.007-2.598-2.061 1.19c-.142.082-.264.096-.363.037-.1-.057-.15-.167-.15-.33-.001-.162.049-.331.148-.502s.22-.3.361-.381l2.462-1.422c.166-.096.308-.11.425-.045.118.067.175.197.176.388l.01 3.259c0 .202-.042.405-.129.614-.088.209-.201.39-.343.55-.933 1.076-1.885 1.893-2.86 2.456-.858.495-1.62.72-2.288.667-.668-.05-1.186-.36-1.554-.928-.369-.57-.555-1.351-.558-2.346a8.447 8.447 0 0 1 .567-3.03 9.816 9.816 0 0 1 1.564-2.732c.66-.812 1.394-1.452 2.203-1.92z" opacity="1" data-original="#c9c9d3"></path><path fill="#ff3d47" d="M24.308 20.249c.157-.091.293-.104.405-.038.113.062.17.185.17.366l.018 6.132c.004 1.253-.238 2.283-.722 3.086-.486.802-1.1 1.417-1.841 1.845-.609.351-1.164.509-1.664.472-.185-.017-.276-.144-.277-.371 0-.154.044-.317.13-.485a.885.885 0 0 1 .344-.38.473.473 0 0 1 .224-.072c.383-.009.772-.129 1.163-.354.45-.26.814-.62 1.093-1.076.278-.459.416-1.1.414-1.922l-.018-6.218c0-.182.052-.368.16-.559a1.09 1.09 0 0 1 .4-.426zM33.67 16.555c.218.353.327.81.328 1.363a5.108 5.108 0 0 1-.319 1.737c-.215.604-.572 1.204-1.07 1.8-.5.594-1.146 1.122-1.937 1.578l-2.274 1.313.009 3.07c0 .184-.056.368-.167.558-.113.188-.248.33-.406.42-.158.092-.292.106-.401.046-.108-.064-.163-.183-.163-.367l-.025-8.787c0-.18.053-.368.16-.558.11-.193.242-.335.4-.426l2.849-1.645c.79-.456 1.438-.677 1.939-.659.5.019.86.205 1.077.557zm-1.322 3.713c.344-.574.515-1.138.513-1.693-.001-.554-.174-.92-.521-1.094-.347-.172-.945-.016-1.794.475l-2.163 1.248.011 3.905 2.163-1.248c.85-.49 1.446-1.021 1.79-1.593M39.463 11.427c.65-.375 1.218-.61 1.706-.71a4.07 4.07 0 0 1 1.408-.052c.067 0 .124.036.175.102a.44.44 0 0 1 .075.273c0 .162-.047.327-.142.499-.095.168-.222.3-.38.391a.54.54 0 0 1-.263.08 3.531 3.531 0 0 0-1.177.074c-.39.093-.816.27-1.273.535a6.476 6.476 0 0 0-1.712 1.45 6.917 6.917 0 0 0-1.19 2.03 6.536 6.536 0 0 0-.425 2.352c.002.746.14 1.335.412 1.769.273.432.665.671 1.18.714.513.044 1.12-.137 1.818-.54.783-.452 1.512-1.085 2.185-1.895l-.008-2.598-2.06 1.19c-.143.081-.264.096-.364.037-.099-.057-.15-.167-.15-.33s.05-.331.148-.502.22-.3.362-.382l2.462-1.42c.165-.097.307-.111.425-.046.118.067.175.197.175.387l.01 3.26c0 .202-.042.405-.128.613-.089.21-.202.391-.343.55-.933 1.076-1.885 1.894-2.86 2.457-.858.495-1.621.72-2.288.666-.669-.049-1.187-.36-1.555-.927-.368-.57-.555-1.352-.558-2.347a8.447 8.447 0 0 1 .567-3.03 9.816 9.816 0 0 1 1.565-2.731c.66-.812 1.394-1.452 2.203-1.92z" opacity="1" data-original="#ff3d47"></path></g></svg>