<svg xmlns="http://www.w3.org/2000/svg" version="1.1" xmlns:xlink="http://www.w3.org/1999/xlink" width="512" height="512" x="0" y="0" viewBox="0 0 68 68" style="enable-background:new 0 0 512 512" xml:space="preserve" class=""><g><path fill="#edeef2" d="M47.19 46.148c.005 1.76-1.234 3.905-2.764 4.789L18.993 65.619c-.786.453-1.496.487-2.002.175.01.007.019.014.029.019l-2.272-1.32c-.498-.29-.807-.904-.809-1.78l-.365-40.86c-.005-1.763 1.234-3.905 2.764-4.79L41.769 2.382c.77-.446 1.47-.487 1.973-.193l2.233 1.296.04.023c.498.29.806.906.808 1.78z" opacity="1" data-original="#edeef2"></path><path fill="#d3d3dd" d="M43.743 2.187c-.504-.293-1.203-.251-1.974.194L16.34 17.063c-1.532.884-2.77 3.028-2.765 4.789l.365 40.862c.003.874.311 1.49.81 1.779l2.271 1.32c-.498-.29-.807-.905-.81-1.78l-.365-40.86c-.004-1.762 1.234-3.905 2.765-4.79L44.04 3.701c.772-.445 1.47-.487 1.975-.194z" opacity="1" data-original="#d3d3dd"></path><path fill="#edeef2" d="M44.04 3.701c1.533-.885 2.779-.175 2.784 1.586l.366 40.86c.005 1.76-1.233 3.905-2.765 4.79L18.994 65.62c-1.532.884-2.778.174-2.783-1.586l-.366-40.862c-.005-1.76 1.234-3.904 2.765-4.789z" opacity="1" data-original="#edeef2"></path><path fill="#e0e1ec" d="M47.19 46.148c.005 1.76-1.234 3.905-2.764 4.789L18.993 65.619c-1.53.884-2.777.175-2.782-1.586l-.23-25.891a13.01 13.01 0 0 0 5.602 1.266c7.665 0 13.879-6.676 13.879-14.909 0-5.128-2.41-9.652-6.082-12.335l14.66-8.463c1.533-.886 2.778-.175 2.783 1.586z" opacity="1" data-original="#e0e1ec"></path><path fill="#b5b7c6" d="M37.354 44.873a.381.381 0 0 1-.191-.712l5.318-3.07a.381.381 0 1 1 .38.66l-5.317 3.07a.38.38 0 0 1-.19.052zM19.958 54.916a.381.381 0 0 1-.191-.711l15.123-8.732a.381.381 0 1 1 .381.66l-15.123 8.732a.38.38 0 0 1-.19.051z" opacity="1" data-original="#b5b7c6"></path><path fill="#423751" d="M38.727 17.135a.381.381 0 0 1-.191-.712l4.352-2.512a.381.381 0 1 1 .38.66l-4.351 2.513a.38.38 0 0 1-.19.05z" opacity="1" data-original="#423751"></path><path fill="#b5b7c6" d="M19.958 23.463a.381.381 0 0 1-.191-.712l3.33-1.922a.381.381 0 1 1 .381.66l-3.33 1.923a.38.38 0 0 1-.19.05zM25.976 19.988a.381.381 0 0 1-.19-.711l10.142-5.856a.381.381 0 1 1 .381.66l-10.143 5.856a.38.38 0 0 1-.19.051zM38.32 12.862a.381.381 0 0 1-.191-.712l4.352-2.512a.381.381 0 1 1 .38.66l-4.351 2.513a.38.38 0 0 1-.19.05z" opacity="1" data-original="#b5b7c6"></path><path fill="#423751" d="M20.365 23.463a.381.381 0 0 1-.191-.712l3.33-1.922a.381.381 0 1 1 .381.66l-3.33 1.923a.38.38 0 0 1-.19.05zM26.383 19.988a.381.381 0 0 1-.19-.711l10.142-5.856a.381.381 0 1 1 .381.66l-10.143 5.856a.38.38 0 0 1-.19.051zM38.727 12.862a.381.381 0 0 1-.191-.712l4.352-2.512a.381.381 0 1 1 .38.66l-4.351 2.513a.38.38 0 0 1-.19.05z" opacity="1" data-original="#423751"></path><path fill="#b5b7c6" d="M33.912 19.68a.381.381 0 0 1-.191-.712l8.76-5.057a.381.381 0 1 1 .38.66l-8.759 5.058a.38.38 0 0 1-.19.05zM20.114 27.514a.381.381 0 0 1-.19-.711L31.012 20.4a.38.38 0 1 1 .381.66l-11.09 6.403a.38.38 0 0 1-.19.051z" opacity="1" data-original="#b5b7c6"></path><path fill="#423751" d="M20.365 27.736a.381.381 0 0 1-.191-.712l11.09-6.402a.38.38 0 1 1 .38.66l-11.089 6.403a.38.38 0 0 1-.19.05zM34.319 19.68a.381.381 0 0 1-.191-.712l8.76-5.057a.381.381 0 1 1 .38.66L34.51 19.63a.38.38 0 0 1-.19.05z" opacity="1" data-original="#423751"></path><path fill="#b5b7c6" d="M19.958 59.734a.381.381 0 0 1-.191-.712l4.764-2.75a.381.381 0 1 1 .382.66l-4.765 2.75a.38.38 0 0 1-.19.052zM26.98 55.68a.381.381 0 0 1-.19-.712l15.69-9.06a.381.381 0 1 1 .382.661L27.17 55.628a.38.38 0 0 1-.19.051z" opacity="1" data-original="#b5b7c6"></path><path fill="#423751" d="M20.365 59.734a.381.381 0 0 1-.191-.712l4.764-2.75a.381.381 0 1 1 .382.66l-4.765 2.75a.38.38 0 0 1-.19.052zM27.387 55.68a.381.381 0 0 1-.19-.712l15.69-9.06a.381.381 0 1 1 .382.661l-15.691 9.059a.38.38 0 0 1-.19.051zM37.76 44.873a.381.381 0 0 1-.19-.712l5.318-3.07a.381.381 0 1 1 .38.66l-5.317 3.07a.38.38 0 0 1-.19.052zM20.365 54.916a.381.381 0 0 1-.191-.711l15.123-8.732a.381.381 0 1 1 .381.66l-15.123 8.732a.38.38 0 0 1-.19.051z" opacity="1" data-original="#423751"></path><path fill="#ff3d47" d="M54.426 27.768c0 1.48-1.04 3.29-2.33 4.03l-19.56 11.29c-.72.42-1.36.42-1.79.07.04.04.08.07.13.1l-1.39-.81c-.42-.24-.68-.76-.68-1.5l-.03-10.7c0-1.48 1.04-3.27 2.33-4.02l19.56-11.29c.65-.38 1.24-.41 1.66-.17l1.3.76c.02.01.05.02.07.04.43.23.7.75.7 1.5z" opacity="1" data-original="#ff3d47"></path><path fill="#e8183b" d="M52.33 14.773c-.424-.247-1.012-.211-1.661.164L31.105 26.23c-1.287.744-2.328 2.54-2.324 4.02l.026 10.7c.002.736.262 1.253.68 1.496l1.391.808c-.418-.243-.678-.76-.68-1.495l-.026-10.7c-.004-1.48 1.037-3.277 2.324-4.02L52.06 15.745c.65-.375 1.238-.41 1.662-.164z" opacity="1" data-original="#e8183b"></path><path fill="#ff3d47" d="M52.059 15.745c1.288-.743 2.335-.153 2.34 1.327l.025 10.7c.005 1.48-1.036 3.283-2.324 4.026L32.537 43.093c-1.287.744-2.335.147-2.34-1.333l-.025-10.7c-.004-1.48 1.036-3.277 2.324-4.02z" opacity="1" data-original="#ff3d47"></path><path fill="#f72d40" d="M54.426 27.768c0 1.48-1.04 3.29-2.33 4.03l-19.56 11.29c-1.29.75-2.33.15-2.34-1.33l-.02-8.21c1.03.71 2.24 1.11 3.54 1.11 3.7 0 6.7-3.28 6.7-7.33 0-1.55-.44-3-1.19-4.18l12.83-7.4c1.29-.75 2.34-.16 2.34 1.32z" opacity="1" data-original="#f72d40"></path><path fill="#e8183b" d="M37.826 29.083c.163.266.245.606.246 1.023a3.84 3.84 0 0 1-.24 1.302c-.16.453-.428.902-.802 1.347-.374.446-.859.841-1.452 1.184l-1.705.984.007 2.304a.812.812 0 0 1-.125.416.858.858 0 0 1-.304.317c-.119.068-.219.079-.301.032-.08-.046-.122-.137-.122-.273l-.02-6.588a.86.86 0 0 1 .121-.42.816.816 0 0 1 .3-.318l2.135-1.233c.593-.342 1.08-.507 1.454-.495.376.013.645.153.808.418zm-.991 2.783c.258-.43.386-.852.385-1.268-.001-.417-.131-.691-.391-.82-.26-.131-.708-.012-1.345.356l-1.622.936.009 2.927 1.621-.936c.637-.367 1.084-.765 1.343-1.195M44.544 25.927c.252.43.378.96.38 1.591.001.633-.121 1.308-.37 2.026a7.277 7.277 0 0 1-1.115 2.05 6.07 6.07 0 0 1-1.811 1.59l-1.882 1.087c-.12.07-.219.08-.3.034-.082-.048-.123-.14-.123-.275l-.019-6.533a.86.86 0 0 1 .12-.42.812.812 0 0 1 .3-.319l1.883-1.086c.712-.412 1.316-.579 1.813-.503.499.075.873.327 1.124.758zm-.777 3.743c.212-.55.316-1.106.315-1.666-.002-.559-.11-.99-.323-1.295s-.515-.464-.902-.481c-.39-.017-.838.122-1.35.418l-1.35.779.017 5.682 1.348-.778a5 5 0 0 0 1.349-1.14c.386-.464.685-.97.896-1.52M50.403 20.593c.112-.065.208-.076.285-.03.08.045.118.131.118.26a.757.757 0 0 1-.116.392.801.801 0 0 1-.285.293l-3.213 1.856.007 2.378 2.886-1.666c.112-.065.207-.076.285-.03.08.043.117.13.118.26a.757.757 0 0 1-.116.391.801.801 0 0 1-.285.294l-2.886 1.666.008 2.874a.812.812 0 0 1-.125.416.859.859 0 0 1-.304.317c-.118.068-.219.08-.3.032-.081-.046-.123-.137-.123-.273l-.019-6.587a.86.86 0 0 1 .12-.42.817.817 0 0 1 .3-.319z" opacity="1" data-original="#e8183b"></path><path fill="#ffffff" d="M38.217 29.224c.163.265.245.606.246 1.022a3.84 3.84 0 0 1-.24 1.303c-.16.452-.428.902-.802 1.346-.374.447-.86.842-1.452 1.184l-1.705.984.007 2.304a.812.812 0 0 1-.125.416.858.858 0 0 1-.305.317c-.118.069-.218.08-.3.033-.081-.046-.122-.138-.123-.274l-.018-6.587a.86.86 0 0 1 .12-.42.816.816 0 0 1 .3-.318l2.135-1.233c.593-.343 1.079-.508 1.454-.496.375.014.644.154.808.419zm-.992 2.782c.259-.43.387-.851.385-1.268 0-.416-.13-.69-.39-.82s-.709-.011-1.346.356l-1.62.936.007 2.928 1.622-.936c.637-.368 1.084-.765 1.342-1.196M44.934 26.068c.252.429.378.96.38 1.591.002.633-.12 1.307-.37 2.025a7.277 7.277 0 0 1-1.115 2.051 6.07 6.07 0 0 1-1.81 1.59l-1.883 1.087c-.12.069-.218.079-.3.034-.08-.048-.122-.14-.123-.275l-.018-6.534a.86.86 0 0 1 .12-.42.812.812 0 0 1 .3-.318l1.882-1.087c.713-.411 1.317-.578 1.814-.502.499.075.873.327 1.123.758zm-.776 3.742c.211-.55.316-1.106.314-1.665-.001-.56-.109-.991-.322-1.296s-.515-.464-.903-.48c-.388-.017-.838.122-1.35.418l-1.349.778.017 5.683 1.348-.778a5 5 0 0 0 1.349-1.14c.386-.464.685-.97.896-1.52M50.793 20.734c.113-.065.208-.077.286-.03.08.045.117.13.118.26a.757.757 0 0 1-.116.391.801.801 0 0 1-.285.294l-3.214 1.855.007 2.379 2.886-1.666c.112-.065.208-.077.286-.03.079.043.117.13.117.26a.757.757 0 0 1-.115.391.801.801 0 0 1-.285.294l-2.886 1.666.008 2.874a.812.812 0 0 1-.125.416.859.859 0 0 1-.304.317c-.119.068-.219.079-.301.032-.08-.046-.122-.137-.122-.273l-.02-6.588a.86.86 0 0 1 .121-.42.817.817 0 0 1 .3-.318z" opacity="1" data-original="#ffffff"></path></g></svg>