<svg xmlns="http://www.w3.org/2000/svg" version="1.1" xmlns:xlink="http://www.w3.org/1999/xlink" width="512" height="512" x="0" y="0" viewBox="0 0 68 68" style="enable-background:new 0 0 512 512" xml:space="preserve" class=""><g><path fill="#d3d3dd" d="m38.958 3.478 9.83 6.198-8.354 4.823c-.796.46-1.444.092-1.447-.823zM38.958 3.478 29.68 20.529c-.795.46-2.387-1.241-2.383-.326l-1.277 28.57c7.44-3.693-1.964 12.444-9.843 17.13l-2.544-1.478c-.257-.15-.418-.47-.42-.925l-.131-46.37c-.003-.916.64-2.03 1.437-2.489L36.414 2z" opacity="1" data-original="#d3d3dd"></path><path fill="#edeef2" d="m38.958 3.478.03 10.198c.002.915.65 1.283 1.446.823l8.355-4.823.102 36.172c.003.915-.64 2.029-1.436 2.488L17.203 65.802c-.796.46-1.443.09-1.446-.824l-.131-46.37c-.003-.915.64-2.03 1.436-2.489z" opacity="1" data-original="#edeef2"></path><path fill="#e0e1ec" d="M48.891 45.849c.003.914-.64 2.027-1.435 2.487L17.203 65.8c-.796.461-1.444.092-1.446-.823l-.086-30.948c1.32.459 2.73.708 4.2.708 7.325 0 13.264-6.194 13.264-13.837 0-4.501-2.06-8.5-5.253-11.029l11.076-6.394.03 10.199c.001.913.65 1.282 1.447.823l8.354-4.824z" opacity="1" data-original="#e0e1ec"></path><path fill="#423751" d="M54.918 31.521c0 1.576-1.107 3.503-2.48 4.29l-20.825 12.02c-.766.448-1.448.448-1.905.075a.684.684 0 0 0 .138.106l-1.48-.862c-.447-.255-.724-.81-.724-1.597l-.032-11.392c0-1.575 1.107-3.48 2.48-4.28l20.825-12.02c.692-.404 1.32-.436 1.768-.18l1.384.809c.02.01.053.021.074.043.458.244.745.798.745 1.596z" opacity="1" data-original="#423751"></path><path fill="#28223d" d="M52.687 17.686c-.452-.263-1.078-.225-1.77.174L30.09 29.885c-1.37.791-2.479 2.704-2.475 4.28l.028 11.392c.002.782.279 1.333.724 1.592l1.48.86c-.445-.259-.721-.81-.723-1.592l-.028-11.392c-.005-1.576 1.104-3.488 2.474-4.28l20.828-12.024c.691-.4 1.317-.437 1.77-.175z" opacity="1" data-original="#28223d"></path><path fill="#423751" d="M52.398 18.72c1.37-.79 2.486-.162 2.49 1.413l.028 11.393c.005 1.575-1.103 3.494-2.474 4.286L31.614 47.837c-1.37.791-2.486.155-2.49-1.42l-.028-11.392c-.005-1.576 1.104-3.488 2.474-4.28z" opacity="1" data-original="#423751"></path><path fill="#382e49" d="M54.918 31.521c0 1.576-1.107 3.503-2.48 4.29l-20.825 12.02c-1.373.799-2.48.16-2.491-1.416l-.021-8.74a6.593 6.593 0 0 0 3.768 1.181c3.94 0 7.134-3.491 7.134-7.803 0-1.65-.469-3.194-1.267-4.45l13.659-7.879c1.373-.798 2.491-.17 2.491 1.405z" opacity="1" data-original="#382e49"></path><path fill="#28223d" d="M37.125 33.302c.152.246.229.563.23.95a3.58 3.58 0 0 1-.224 1.21c-.15.421-.398.837-.745 1.251-.348.415-.797.781-1.348 1.1l-1.584.914.006 2.14a.743.743 0 0 1-.116.386.783.783 0 0 1-.283.293c-.11.064-.203.075-.278.031-.076-.042-.114-.127-.115-.253l-.017-6.118c0-.128.037-.259.113-.392a.754.754 0 0 1 .277-.296l1.985-1.146c.55-.318 1-.47 1.349-.457.348.012.599.142.75.387zm-.92 2.586c.24-.4.36-.794.358-1.179 0-.387-.123-.64-.364-.762-.242-.12-.658-.01-1.25.332l-1.505.87.007 2.719 1.506-.87c.592-.341 1.007-.712 1.247-1.11M43.394 28.49c.112-.064.205-.072.284-.027.08.043.117.13.118.258l.017 5.968c0 .18-.056.366-.168.557a1.137 1.137 0 0 1-.404.423l-.104.06a.492.492 0 0 1-.262.077.304.304 0 0 1-.2-.079l-3.383-3.645.015 5.41a.754.754 0 0 1-.116.385.792.792 0 0 1-.283.293c-.11.064-.203.075-.279.032-.075-.043-.113-.128-.114-.254l-.016-5.97c-.001-.179.053-.366.163-.559.11-.194.243-.337.4-.427l.114-.066c.184-.106.345-.099.478.026l3.365 3.624-.015-5.398c0-.128.038-.258.113-.391a.754.754 0 0 1 .277-.296zM48.146 25.699c.452-.261.848-.427 1.188-.496s.665-.082.98-.036c.047 0 .086.025.122.07.035.047.052.11.052.19a.71.71 0 0 1-.099.348.708.708 0 0 1-.264.273.36.36 0 0 1-.184.055 2.418 2.418 0 0 0-.82.054 3.296 3.296 0 0 0-.887.371c-.44.255-.838.59-1.19 1.009a4.837 4.837 0 0 0-.83 1.413 4.557 4.557 0 0 0-.295 1.638c.001.52.097.932.287 1.232.19.3.463.468.821.497.357.03.779-.094 1.266-.376.545-.314 1.053-.754 1.522-1.319l-.006-1.81-1.435.83c-.099.056-.183.066-.252.025-.07-.04-.105-.116-.106-.23 0-.113.035-.229.104-.35a.702.702 0 0 1 .252-.265l1.714-.99c.116-.066.214-.076.296-.031.08.047.122.137.122.27l.007 2.27c0 .14-.03.282-.09.427-.061.145-.14.274-.238.382-.65.75-1.313 1.32-1.992 1.711-.597.345-1.128.501-1.593.464a1.345 1.345 0 0 1-1.082-.646c-.257-.396-.387-.94-.389-1.633-.002-.706.13-1.41.395-2.11a6.803 6.803 0 0 1 1.09-1.9c.46-.568.97-1.012 1.534-1.337z" opacity="1" data-original="#28223d"></path><path fill="#ffffff" d="M37.55 33.208c.152.246.23.563.23.95a3.58 3.58 0 0 1-.224 1.21c-.15.421-.398.837-.745 1.252-.348.414-.797.78-1.347 1.098l-1.585.915.006 2.14a.743.743 0 0 1-.116.387.783.783 0 0 1-.283.293c-.11.063-.203.075-.278.03-.076-.042-.114-.127-.115-.253l-.017-6.118c0-.128.037-.258.113-.391a.754.754 0 0 1 .277-.297l1.985-1.145c.55-.318 1-.471 1.35-.458.348.013.598.142.75.387zm-.92 2.586c.24-.4.36-.793.359-1.179-.002-.387-.124-.64-.365-.762-.242-.12-.658-.01-1.25.332l-1.505.87.008 2.719 1.505-.87c.592-.341 1.007-.712 1.247-1.11M43.82 28.397c.11-.064.204-.073.283-.028.08.044.118.13.118.258l.017 5.968c0 .18-.056.366-.168.557a1.137 1.137 0 0 1-.404.423l-.104.06a.492.492 0 0 1-.262.077.304.304 0 0 1-.2-.079l-3.383-3.645.015 5.41a.754.754 0 0 1-.116.386.792.792 0 0 1-.282.293c-.11.063-.203.075-.28.031-.075-.043-.113-.127-.113-.254l-.017-5.97c0-.179.054-.366.163-.559.111-.194.243-.336.4-.427l.114-.065c.184-.107.345-.1.478.025l3.366 3.624-.016-5.398c0-.128.038-.258.114-.391a.754.754 0 0 1 .277-.296zM48.57 25.605c.453-.261.849-.426 1.189-.496s.666-.081.98-.036c.047 0 .086.025.122.07.035.047.052.11.053.19a.71.71 0 0 1-.1.348.708.708 0 0 1-.264.273.36.36 0 0 1-.183.056 2.418 2.418 0 0 0-.82.053 3.296 3.296 0 0 0-.888.371c-.44.255-.838.591-1.19 1.009a4.837 4.837 0 0 0-.829 1.414 4.557 4.557 0 0 0-.296 1.638c.002.52.097.931.287 1.231.19.301.463.468.821.498.357.03.779-.095 1.266-.376.545-.315 1.054-.754 1.522-1.32l-.005-1.81-1.436.83c-.098.056-.183.066-.252.025-.07-.04-.105-.116-.105-.23s.034-.228.103-.35a.702.702 0 0 1 .252-.265l1.714-.99c.116-.066.214-.076.296-.031.081.048.122.137.123.27l.006 2.27c0 .14-.029.282-.09.428-.06.145-.14.273-.238.382-.65.75-1.313 1.318-1.992 1.71-.597.345-1.128.501-1.593.465a1.345 1.345 0 0 1-1.082-.646c-.257-.397-.387-.941-.389-1.634-.002-.706.13-1.41.395-2.11a6.803 6.803 0 0 1 1.09-1.9c.46-.568.97-1.012 1.534-1.337z" opacity="1" data-original="#ffffff"></path></g></svg>