<svg xmlns="http://www.w3.org/2000/svg" version="1.1" xmlns:xlink="http://www.w3.org/1999/xlink" width="512" height="512" x="0" y="0" viewBox="0 0 400 400" style="enable-background:new 0 0 512 512" xml:space="preserve" class=""><g><path d="M312 0H112C94.328 0 80 14.328 80 32v8H32C14.328 40 0 54.328 0 72v40c0 17.672 14.328 32 32 32h48v192c0 17.68 14.32 32 32 32h48c0 17.672 14.328 32 32 32h96c17.672 0 32-14.328 32-32h48c17.672 0 32-14.328 32-32V80L320 0h-8zm-40 72c0-17.672-14.328-32-32-32 17.68 0 32 14.32 32 32zm0 40c0 17.68-14.32 32-32 32 17.672 0 32-14.328 32-32z" style="" fill="#ffdc69" data-original="#ffdc69" class=""></path><path d="M272 72v40c0 17.672-14.328 32-32 32H32c-17.672 0-32-14.328-32-32V72c0-17.672 14.328-32 32-32h208c17.672 0 32 14.328 32 32z" style="" fill="#ff8c5a" data-original="#ff8c5a"></path><path d="M288 400h-96c-17.672 0-32-14.328-32-32v-80c0-17.672 14.328-32 32-32h96c17.672 0 32 14.328 32 32v80c0 17.672-14.328 32-32 32z" style="" fill="#feec9f" data-original="#feec9f"></path><path d="M240 360h-24v-24l40-40 24 24z" style="" fill="#ffffff" data-original="#ffffff"></path><path d="M320 0h-8v56c0 17.672 14.328 32 32 32h56v-8L320 0z" style="" fill="#ffb855" data-original="#ffb855"></path><path d="M24 104h16v16H24zM75.192 64.168H53.368v55.808h16.008v-17.16h5.816c10.376 0 22.496-5.192 22.496-19.832 0-12.312-7.784-18.816-22.496-18.816zm-5.808 13h5.152c5.248 0 7.488 1.736 7.488 5.816 0 4.528-2.512 6.824-7.488 6.824h-5.152v-12.64zM104.8 64.168v55.808h16v-17.16h5.824c10.376 0 22.496-5.192 22.496-19.832 0-12.312-7.784-18.824-22.496-18.824H104.8v.008zm16 13h5.16c5.24 0 7.48 1.736 7.48 5.816 0 4.528-2.512 6.824-7.48 6.824h-5.16v-12.64zM196.032 64.168h-44.648V77.84h14.32v42.128h16.008V77.84h14.32z" style="" fill="#ffffff" data-original="#ffffff"></path></g></svg>