<svg xmlns="http://www.w3.org/2000/svg" version="1.1" xmlns:xlink="http://www.w3.org/1999/xlink" width="512" height="512" x="0" y="0" viewBox="0 0 400 400" style="enable-background:new 0 0 512 512" xml:space="preserve" class=""><g><path d="M312 0H112C94.328 0 80 14.328 80 32v8H32C14.328 40 0 54.328 0 72v40c0 17.672 14.328 32 32 32h48v192c0 17.68 14.32 32 32 32h48c0 17.672 14.328 32 32 32h96c17.672 0 32-14.328 32-32h48c17.672 0 32-14.328 32-32V80L320 0h-8zm-40 72c0-17.672-14.328-32-32-32 17.68 0 32 14.32 32 32zm0 40c0 17.68-14.32 32-32 32 17.672 0 32-14.328 32-32z" style="" fill="#ffdc69" data-original="#ffdc69" class=""></path><path d="M272 72v40c0 17.672-14.328 32-32 32H32c-17.672 0-32-14.328-32-32V72c0-17.672 14.328-32 32-32h208c17.672 0 32 14.328 32 32z" style="" fill="#ff8c5a" data-original="#ff8c5a"></path><path d="M288 400h-96c-17.672 0-32-14.328-32-32v-80c0-17.672 14.328-32 32-32h96c17.672 0 32 14.328 32 32v80c0 17.672-14.328 32-32 32z" style="" fill="#feec9f" data-original="#feec9f"></path><path d="M240 360h-24v-24l40-40 24 24z" style="" fill="#ffffff" data-original="#ffffff"></path><path d="M320 0h-8v56c0 17.672 14.328 32 32 32h56v-8L320 0z" style="" fill="#ffb855" data-original="#ffb855"></path><path d="M24 104h16v16H24zM53.376 64.168v55.808h16v-17.16H75.2c10.368 0 22.488-5.192 22.488-19.832 0-12.312-7.776-18.824-22.488-18.824H53.376v.008zm16 13h5.16c5.248 0 7.488 1.736 7.488 5.816 0 4.528-2.52 6.824-7.488 6.824h-5.16v-12.64zM104.8 64.168v55.808h16v-17.16h5.824c10.376 0 22.488-5.192 22.488-19.832 0-12.312-7.776-18.824-22.488-18.824H104.8v.008zm15.992 13h5.16c5.248 0 7.488 1.736 7.488 5.816 0 4.528-2.52 6.824-7.488 6.824h-5.16v-12.64zM244.152 64.168h-17.288l-3.352 9.352a167.125 167.125 0 0 0-2.784 7.392c-.304-.72-.6-1.424-.88-2.104-.816-1.976-1.552-3.752-2.272-5.296l-3.88-9.344h-62.312v13.68h14.32v42.128h16V77.84h14.32V64.656l14 26.648-15.096 28.656H212.2l4.208-10.176c.96-2.328 1.936-4.728 2.92-7.4 1.136 2.816 2.12 5.136 3.192 7.424l4.552 10.16h17.936l-15.112-27.992 14.256-27.808z" style="" fill="#ffffff" data-original="#ffffff"></path></g></svg>