<svg xmlns="http://www.w3.org/2000/svg" version="1.1" xmlns:xlink="http://www.w3.org/1999/xlink" width="512" height="512" x="0" y="0" viewBox="0 0 68 68" style="enable-background:new 0 0 512 512" xml:space="preserve" class=""><g><path fill="#edeef2" d="m49.471 8.599-.11 38.898c-.002.839-.228 1.499-.611 1.926a1.749 1.749 0 0 1-.422.345l-27.51 15.987c-.326.192-.715.275-1.151.235-.424-.038-.892-.193-1.38-.475-.73-.422-1.415-1.075-1.98-1.84a8.48 8.48 0 0 1-1.275-2.528 6.051 6.051 0 0 1-.275-1.745l.009-2.744c.001-.281.1-.478.263-.567l5.076-2.95.081-28.46-3.819 2.22c-.16.098-.385.087-.635-.057-.487-.281-.879-.961-.877-1.519l.013-4.822c.002-.838.229-1.497.612-1.926.128-.142.273-.26.432-.352L43.423 2.238c.323-.187.71-.268 1.139-.228.423.038.888.193 1.373.471.74.429 1.425 1.08 1.986 1.844a8.441 8.441 0 0 1 1.275 2.528c.179.592.277 1.186.275 1.746z" opacity="1" data-original="#edeef2"></path><path fill="#e0e1ec" d="M47.08 47.622 19.56 63.616a.84.84 0 0 1-.27.1c-.286.057-.623-.01-.996-.224a3.092 3.092 0 0 1-.693-.561 4.225 4.225 0 0 1-.781-1.195 3.298 3.298 0 0 1-.3-1.318l.007-2.742c.002-.56-.39-1.24-.877-1.52-.245-.141-.466-.155-.627-.062l27.521-15.993c.16-.095.382-.081.627.06.487.28.879.962.877 1.521l-.006 2.742c-.002.427.107.88.3 1.319.191.437.464.857.78 1.194.213.227.445.417.693.56.373.215.71.283.996.226a.882.882 0 0 0 .27-.1zM44.67 4.384a.948.948 0 0 0-.378.427c-.09.192-.14.43-.142.715l-.013 4.821c0 .278-.1.474-.257.565L16.36 26.905c.157-.09.255-.286.256-.564l.014-4.822a1.69 1.69 0 0 1 .142-.714.956.956 0 0 1 .377-.427z" opacity="1" data-original="#e0e1ec" class=""></path><path fill="#edeef2" d="m49.471 8.599-.11 38.898c-.002.839-.228 1.499-.611 1.926a1.749 1.749 0 0 1-.422.345L20.807 65.762a1.75 1.75 0 0 0 .421-.346c.383-.427.61-1.087.611-1.926l.11-38.898a6.054 6.054 0 0 0-.274-1.746 8.443 8.443 0 0 0-1.275-2.528c-.563-.763-1.246-1.415-1.988-1.843-.483-.278-.948-.434-1.371-.472-.43-.04-.816.042-1.14.229L43.423 2.238c.323-.187.71-.268 1.139-.228.423.038.888.193 1.373.471.74.429 1.425 1.08 1.986 1.844a8.441 8.441 0 0 1 1.275 2.528c.179.592.277 1.186.275 1.746z" opacity="1" data-original="#edeef2"></path><path fill="#e0e1ec" d="m49.471 8.599-.11 38.898c-.002.839-.228 1.499-.611 1.926a1.749 1.749 0 0 1-.422.345L20.807 65.762a1.75 1.75 0 0 0 .421-.346c.383-.427.61-1.087.611-1.926l.081-28.21c.912.208 1.86.318 2.833.318 6.982 0 12.643-5.66 12.643-12.642 0-5.664-3.725-10.46-8.86-12.068l14.887-8.65c.323-.187.71-.268 1.139-.228.423.038.888.193 1.373.471.74.429 1.425 1.08 1.986 1.844a8.441 8.441 0 0 1 1.275 2.528c.179.592.277 1.186.275 1.746z" opacity="1" data-original="#e0e1ec" class=""></path><path fill="#d3d3dd" d="M18.413 18.475c.74.428 1.425 1.08 1.986 1.843a8.461 8.461 0 0 1 1.277 2.529c.178.592.276 1.187.274 1.745l-.11 38.898c-.003.839-.229 1.499-.612 1.927s-.923.631-1.561.573c-.424-.038-.893-.194-1.38-.475-.73-.422-1.416-1.076-1.979-1.84a8.445 8.445 0 0 1-1.276-2.529 6.06 6.06 0 0 1-.274-1.745l.007-2.742c.002-.56.397-.785.884-.504.486.28.88.961.877 1.52l-.007 2.743c-.001.427.108.88.3 1.319.191.437.464.856.781 1.194.214.226.445.417.693.56.372.215.71.283.996.226a.902.902 0 0 0 .648-.528c.09-.193.141-.43.142-.716l.11-38.898c.001-.427-.109-.878-.3-1.317a4.275 4.275 0 0 0-.782-1.195 3.06 3.06 0 0 0-.692-.56c-.372-.214-.71-.282-.995-.226a.898.898 0 0 0-.65.528c-.09.192-.14.43-.141.715l-.014 4.821c-.001.559-.397.784-.883.504-.487-.282-.88-.962-.878-1.52l.014-4.822c.002-.839.229-1.497.612-1.925.383-.43.924-.632 1.561-.575.423.039.889.193 1.372.472z" opacity="1" data-original="#d3d3dd"></path><path fill="#b5b7c6" d="M23.891 40.36a.381.381 0 0 1-.19-.712l4.764-2.75a.381.381 0 1 1 .381.66l-4.765 2.75a.38.38 0 0 1-.19.052zM30.914 36.305a.381.381 0 0 1-.191-.711l15.691-9.059a.381.381 0 1 1 .381.66l-15.691 9.06a.38.38 0 0 1-.19.05zM41.287 34.898a.381.381 0 0 1-.19-.712l5.317-3.07a.381.381 0 1 1 .381.66l-5.317 3.07a.38.38 0 0 1-.19.052zM23.891 44.941a.381.381 0 0 1-.19-.711l15.123-8.732a.381.381 0 1 1 .38.66L24.082 44.89a.38.38 0 0 1-.19.051z" opacity="1" data-original="#b5b7c6"></path><path fill="#423751" d="M24.298 40.36a.381.381 0 0 1-.19-.712l4.764-2.75a.381.381 0 1 1 .381.66l-4.765 2.75a.38.38 0 0 1-.19.052zM31.32 36.305a.381.381 0 0 1-.19-.711l15.691-9.059a.381.381 0 1 1 .381.66l-15.691 9.06a.38.38 0 0 1-.19.05z" opacity="1" data-original="#423751"></path><path fill="#b5b7c6" d="M23.891 49.759a.381.381 0 0 1-.19-.712l4.764-2.75a.381.381 0 1 1 .381.66l-4.765 2.75a.38.38 0 0 1-.19.052zM30.914 45.704a.381.381 0 0 1-.191-.711l15.691-9.06a.381.381 0 1 1 .381.661l-15.691 9.06a.38.38 0 0 1-.19.05z" opacity="1" data-original="#b5b7c6"></path><path fill="#423751" d="M24.298 49.759a.381.381 0 0 1-.19-.712l4.764-2.75a.381.381 0 1 1 .381.66l-4.765 2.75a.38.38 0 0 1-.19.052zM31.32 45.704a.381.381 0 0 1-.19-.711l15.691-9.06a.381.381 0 1 1 .381.661l-15.691 9.06a.38.38 0 0 1-.19.05zM41.694 34.898a.381.381 0 0 1-.19-.712l5.317-3.07a.381.381 0 1 1 .381.66l-5.317 3.07a.38.38 0 0 1-.19.052zM24.298 44.941a.381.381 0 0 1-.19-.711l15.123-8.732a.381.381 0 1 1 .38.66L24.489 44.89a.38.38 0 0 1-.19.051z" opacity="1" data-original="#423751"></path><path fill="#b5b7c6" d="M23.891 54.67a.381.381 0 0 1-.19-.712l4.764-2.75a.381.381 0 1 1 .381.66l-4.765 2.75a.38.38 0 0 1-.19.052zM30.914 50.615a.381.381 0 0 1-.191-.711l15.691-9.06a.381.381 0 1 1 .381.661l-15.691 9.059a.38.38 0 0 1-.19.051zM41.287 49.208a.381.381 0 0 1-.19-.712l5.317-3.07a.381.381 0 1 1 .381.66l-5.317 3.07a.38.38 0 0 1-.19.052zM23.891 59.25a.381.381 0 0 1-.19-.71l15.123-8.732a.381.381 0 1 1 .38.66L24.082 59.2a.38.38 0 0 1-.19.05z" opacity="1" data-original="#b5b7c6"></path><path fill="#423751" d="M24.298 54.67a.381.381 0 0 1-.19-.712l4.764-2.75a.381.381 0 1 1 .381.66l-4.765 2.75a.38.38 0 0 1-.19.052zM31.32 50.615a.381.381 0 0 1-.19-.711l15.691-9.06a.381.381 0 1 1 .381.661l-15.691 9.059a.38.38 0 0 1-.19.051zM41.694 49.208a.381.381 0 0 1-.19-.712l5.317-3.07a.381.381 0 1 1 .381.66l-5.317 3.07a.38.38 0 0 1-.19.052zM24.298 59.25a.381.381 0 0 1-.19-.71l15.123-8.732a.381.381 0 1 1 .38.66L24.489 59.2a.38.38 0 0 1-.19.05z" opacity="1" data-original="#423751"></path><path fill="#ff3d47" d="M53.243 15.987c0 1.305-.918 2.902-2.056 3.554l-17.253 9.96c-.635.37-1.2.37-1.579.06.035.036.07.063.115.09l-1.226-.715c-.37-.212-.6-.67-.6-1.324l-.027-9.438c0-1.305.918-2.884 2.056-3.546L49.926 4.67c.574-.336 1.094-.362 1.464-.15l1.147.67c.018.009.044.018.062.035.38.203.617.662.617 1.323z" opacity="1" data-original="#ff3d47"></path><path fill="#e8183b" d="M51.394 4.524c-.374-.218-.893-.186-1.466.144l-17.256 9.963c-1.136.656-2.054 2.24-2.05 3.546l.023 9.439c.002.648.23 1.104.6 1.319l1.226.713c-.369-.215-.598-.671-.6-1.32l-.023-9.439c-.003-1.305.915-2.89 2.05-3.545L51.156 5.38c.572-.33 1.091-.362 1.465-.144z" opacity="1" data-original="#e8183b"></path><path fill="#ff3d47" d="M51.155 5.381c1.135-.656 2.06-.135 2.063 1.17l.023 9.44c.004 1.305-.914 2.895-2.05 3.55l-17.256 9.963c-1.136.656-2.06.13-2.064-1.176l-.023-9.439c-.003-1.305.915-2.89 2.05-3.545z" opacity="1" data-original="#ff3d47"></path><path fill="#f72d40" d="M53.243 15.987c0 1.305-.918 2.902-2.056 3.554l-17.253 9.96c-1.138.66-2.055.131-2.064-1.174l-.018-7.242c.909.626 1.976.98 3.123.98 3.264 0 5.91-2.894 5.91-6.466a6.883 6.883 0 0 0-1.05-3.688l11.317-6.527c1.138-.661 2.064-.141 2.064 1.164z" opacity="1" data-original="#f72d40" class=""></path><path fill="#e8183b" d="M39.114 16.519c.097-.056.18-.065.246-.027.068.04.102.114.102.225 0 .11-.033.223-.1.336a.69.69 0 0 1-.246.252l-1.635.945.015 5.303a.703.703 0 0 1-.107.36.745.745 0 0 1-.262.27c-.102.06-.188.069-.259.03-.07-.041-.105-.118-.105-.236l-.015-5.304-1.643.949c-.097.055-.178.065-.242.028-.065-.036-.097-.11-.097-.222 0-.11.03-.223.096-.339a.657.657 0 0 1 .24-.254zM44.467 13.428c.096-.056.178-.064.246-.027.067.04.101.114.102.225 0 .111-.034.224-.1.335a.699.699 0 0 1-.246.254l-1.634.943.015 5.304a.698.698 0 0 1-.11.36.737.737 0 0 1-.26.271c-.103.059-.189.068-.258.028-.07-.04-.106-.117-.107-.235l-.015-5.304-1.642.948c-.098.056-.177.065-.243.03-.064-.037-.097-.111-.097-.222s.032-.225.096-.34a.662.662 0 0 1 .242-.255zM49.196 10.697c.096-.055.178-.064.245-.026.068.039.101.115.101.226 0 .11-.032.222-.1.335a.69.69 0 0 1-.244.252l-2.764 1.596.006 2.045 2.482-1.432c.096-.056.179-.065.245-.027.068.04.101.115.102.226 0 .11-.032.222-.1.335a.689.689 0 0 1-.245.252l-2.482 1.433.007 2.472a.693.693 0 0 1-.107.359.745.745 0 0 1-.262.271c-.102.059-.188.068-.257.028-.07-.04-.106-.117-.107-.235l-.016-5.665c0-.117.035-.238.105-.36a.698.698 0 0 1 .257-.275z" opacity="1" data-original="#e8183b"></path><path fill="#ffffff" d="M39.505 16.648c.096-.056.179-.064.245-.026.068.039.103.113.103.224s-.033.224-.101.336a.69.69 0 0 1-.245.253l-1.635.944.015 5.304a.703.703 0 0 1-.108.359.745.745 0 0 1-.262.271c-.101.059-.187.068-.258.03-.07-.042-.105-.119-.105-.237l-.015-5.304-1.644.949c-.096.056-.177.065-.241.028-.066-.035-.097-.11-.098-.221 0-.111.031-.223.096-.34a.657.657 0 0 1 .241-.254zM44.857 13.557c.097-.056.179-.064.247-.027.067.04.1.115.101.226 0 .11-.033.223-.1.335a.699.699 0 0 1-.246.253l-1.634.943.015 5.304a.698.698 0 0 1-.108.36.737.737 0 0 1-.262.271c-.102.06-.188.068-.258.029-.07-.04-.106-.117-.106-.236l-.015-5.304-1.642.948c-.098.057-.178.065-.243.03-.064-.037-.097-.111-.097-.222 0-.11.032-.224.095-.339a.662.662 0 0 1 .243-.255zM49.586 10.827c.097-.056.179-.064.246-.026.068.038.1.114.101.225 0 .11-.032.223-.1.335a.69.69 0 0 1-.245.253l-2.763 1.595.006 2.046 2.482-1.433c.096-.056.178-.064.245-.026.068.039.101.114.101.225 0 .11-.032.223-.1.335a.689.689 0 0 1-.244.253l-2.482 1.433.007 2.47a.693.693 0 0 1-.108.36.745.745 0 0 1-.261.271c-.102.06-.188.068-.258.029-.07-.04-.106-.117-.106-.236l-.016-5.665c0-.117.034-.237.105-.36a.698.698 0 0 1 .256-.275z" opacity="1" data-original="#ffffff"></path></g></svg>