<svg xmlns="http://www.w3.org/2000/svg" version="1.1" xmlns:xlink="http://www.w3.org/1999/xlink" width="512" height="512" x="0" y="0" viewBox="0 0 448 448" style="enable-background:new 0 0 512 512" xml:space="preserve" class=""><g><path d="M336 0H104v40H24v104h80v304h320V80L344 0z" style="" fill="#ffdc69" data-original="#ffdc69" class=""></path><path d="M24 40h272v104H24z" style="" fill="#ff8c5a" data-original="#ff8c5a"></path><path d="M216 288h96v160h-96z" style="" fill="#feec9f" data-original="#feec9f"></path><path d="M256 256h-24v-24l40-40 24 24z" style="" fill="#ffffff" data-original="#ffffff"></path><path d="M344 0h-8v88h88v-8z" style="" fill="#ffb855" data-original="#ffb855"></path><path d="M240 312h24v16h-24zM240 344h48v16h-48zM240 376h48v16h-48zM240 408h48v16h-48zM48 104h16v16H48zM180.216 77.84v42.128h16.008V77.84h14.32V64.16h-61.688l-3.352 9.352a163.386 163.386 0 0 0-2.784 7.392c-.288-.688-.56-1.352-.832-2-.832-2.016-1.584-3.832-2.32-5.4l-3.872-9.344H73.384v13.68h14.312v42.128h16.008V77.84h14.32V64.664l14 26.64-15.096 28.656H134.2l4.2-10.176c.96-2.328 1.944-4.728 2.92-7.392 1.168 2.864 2.128 5.128 3.192 7.416l4.552 10.16H167l-15.12-27.992 14.008-27.336v13.208h14.328v-.008z" style="" fill="#ffffff" data-original="#ffffff"></path><path d="M336 328h40v16h-40zM352 360h16v16h-16zM384 360h16v16h-16zM336 392h56v16h-56zM152 360h40v16h-40zM160 328h16v16h-16zM128 328h16v16h-16zM136 296h56v16h-56zM320 216h56v16h-56zM152 216h56v16h-56zM344 248h16v16h-16zM376 248h24v16h-24zM128 248h16v16h-16zM160 248h24v16h-24z" style="" fill="#feec9f" data-original="#feec9f"></path></g></svg>