<svg xmlns="http://www.w3.org/2000/svg" version="1.1" xmlns:xlink="http://www.w3.org/1999/xlink" width="512" height="512" x="0" y="0" viewBox="0 0 400 400" style="enable-background:new 0 0 512 512" xml:space="preserve" class=""><g><path d="M312 0H112C94.328 0 80 14.328 80 32v8H32C14.328 40 0 54.328 0 72v40c0 17.672 14.328 32 32 32h48v192c0 17.68 14.32 32 32 32h48c0 17.672 14.328 32 32 32h96c17.672 0 32-14.328 32-32h48c17.672 0 32-14.328 32-32V80L320 0h-8zm-40 72c0-17.672-14.328-32-32-32 17.68 0 32 14.32 32 32zm0 40c0 17.68-14.32 32-32 32 17.672 0 32-14.328 32-32z" style="" fill="#ffdc69" data-original="#ffdc69" class=""></path><path d="M272 72v40c0 17.672-14.328 32-32 32H32c-17.672 0-32-14.328-32-32V72c0-17.672 14.328-32 32-32h208c17.672 0 32 14.328 32 32z" style="" fill="#ff8c5a" data-original="#ff8c5a" class=""></path><path d="M288 400h-96c-17.672 0-32-14.328-32-32v-80c0-17.672 14.328-32 32-32h96c17.672 0 32 14.328 32 32v80c0 17.672-14.328 32-32 32z" style="" fill="#feec9f" data-original="#feec9f"></path><path d="M240 360h-24v-24l40-40 24 24z" style="" fill="#ffffff" data-original="#ffffff"></path><path d="M320 0h-8v56c0 17.672 14.328 32 32 32h56v-8L320 0z" style="" fill="#ffb855" data-original="#ffb855"></path><path d="M24 104h16v16H24zM82.64 91.976 96.888 64.16H79.6l-3.352 9.352a167.125 167.125 0 0 0-2.784 7.392c-.304-.72-.6-1.424-.88-2.104-.816-1.976-1.552-3.752-2.272-5.296l-3.88-9.344H48.496L62.76 91.312l-15.096 28.656h17.272l4.208-10.176c.96-2.328 1.936-4.728 2.92-7.4 1.136 2.816 2.12 5.136 3.192 7.424l4.552 10.16h17.936l-15.104-28zM102.296 119.968h36.48v-13.68h-20.48v-42.12h-16zM183.872 102.808c0-7.448-3.736-12.688-11.104-15.6l-7.96-3.12c-4.104-1.576-6.072-2.416-6.072-4.096 0-2.464 3.016-2.824 4.824-2.824 3.56 0 6.552 1.088 10.336 3.76l.648.456 8.128-10.2-.536-.528c-4.776-4.68-11.712-7.488-18.576-7.488-11.968 0-20.984 7.592-20.984 17.664 0 7.168 4.168 12.936 11.416 15.832l6.76 2.832 1.176.472c3.896 1.536 5.624 2.296 5.624 4 0 .824 0 2.984-5.32 2.984-3.6 0-8.248-1.936-12.128-5.056l-.648-.512-9.2 11.08.6.536c5.536 4.984 13.4 7.968 21.04 7.968 14.432 0 21.976-9.136 21.976-18.16z" style="" fill="#ffffff" data-original="#ffffff"></path></g></svg>